<svg xmlns="http://www.w3.org/2000/svg" viewBox="0 0 24 21.7"><path d="M7.2 21.7c-1 0-2-.1-2.9-.4-1.8-.5-3.2-1.4-3.9-2.5-.3-.6-.4-1.1-.4-1.7 0-.6.1-1.2.4-1.8.9-2 3.3-3.4 5.9-3.6-.1-.2-.1-.5-.1-.7v-.2c-2.8-.3-4.9-2.5-4.9-5.4C1.3 3.2 3 1.2 5.4.3 6.2.1 6.9 0 7.6 0h6.1c.4 0 .8.3.9.7.1.4 0 .8-.4 1.1l-1.4 1c-.1 0-.1.1-.2.1.4.8.6 1.7.6 2.6 0 1.5-.7 2.9-2.1 4-.7.6-.8.7-.8.9.1.2.6.7 1.2 1.2 1.8 1.3 2.5 2.6 2.5 4.8 0 2.3-1.7 4.3-4.3 5-.7.1-1.5.3-2.5.3zm-.1-9c-2.6 0-4.9 1.2-5.7 3-.3.5-.4 1-.4 1.4 0 .4.1.8.3 1.2.5.9 1.7 1.7 3.2 2 1.6.4 3.5.5 5 0 2.2-.6 3.6-2.2 3.6-4.1 0-1.8-.6-2.8-2.1-3.9-.4-.3-1.5-1.3-1.5-1.9 0-.7.2-1 1.2-1.8 1.1-.9 1.7-2 1.7-3.2 0-1.1-.3-2-.9-2.7l-.7-.8h1.6l1.4-1-6.2.1c-.6 0-1.2.1-1.8.3-2.1.7-3.5 2.4-3.5 4.2 0 2.5 1.9 4.4 4.5 4.4h.6l-.2.6c0 .2-.1.4-.1.5 0 .3.1.7.3 1l.4.7h-.7zm.1 7c-2.3 0-4.1-1.4-4.1-3.3 0-1.7 2-3.2 4.4-3.2h.1c.5 0 1 .1 1.5.2l.1.1.4.3c1 .7 1.7 1.2 2 2.1.1.2.1.4.1.6 0 1.5-.8 3.2-4.5 3.2zm.4-6v.5c-1.8 0-3.4 1-3.4 2.2 0 1.3 1.3 2.3 3.1 2.3 3.5 0 3.5-1.7 3.5-2.2v-.4c-.1-.5-.7-.9-1.6-1.5l.2-.5-.4.5-.3-.2c-.4-.1-.7-.2-1.1-.2v-.5zm.3-4.4c-1.6 0-3.1-1.8-3.4-3.8-.2-1.2.1-2.3.7-2.9.4-.5 1-.7 1.6-.7h.1c1.6 0 3.1 1.7 3.4 3.8.2 1.2-.1 2.3-.7 2.9-.5.4-1.1.7-1.7.7zm-1.1-7v.5c-.4 0-.6.2-.9.4-.4.5-.5 1.2-.4 2.1.2 1.6 1.3 2.9 2.4 3 .4 0 .6-.1.9-.4.4-.5.6-1.3.5-2.2C9 4.2 7.9 2.9 6.8 2.8v-.5zM20.5 14h-2c-.3 0-.5-.2-.5-.5V11h-2.5c-.3 0-.5-.2-.5-.5v-2c0-.3.2-.5.5-.5H18V5.5c0-.3.2-.5.5-.5h2c.3 0 .5.2.5.5V8h2.5c.3 0 .5.2.5.5v2c0 .3-.2.5-.5.5H21v2.5c0 .3-.2.5-.5.5zM19 13h1v-2.5c0-.3.2-.5.5-.5H23V9h-2.5c-.3 0-.5-.2-.5-.5V6h-1v2.5c0 .3-.2.5-.5.5H16v1h2.5c.3 0 .5.2.5.5V13z"/></svg>