<svg xmlns="http://www.w3.org/2000/svg" viewBox="0 0 21.5 21.5"><path d="M14.8 12.4c-.6 0-1.3-.2-1.8-.7l-.1-.1c-.2-.2-.2-.5 0-.7s.5-.2.7 0l.1.1c.6.6 1.5.6 2.1 0l4-4c1-1 1-2.6 0-3.5L18 1.7c-.9-.9-2.6-.9-3.5 0l-4 4c-.6.6-.6 1.5 0 2.1l.1.1c.2.2.2.5 0 .7-.2.2-.5.2-.7 0l-.1-.1c-1-1-1-2.6 0-3.5l4-4c1.3-1.3 3.6-1.3 4.9 0l1.8 1.8c1.4 1.4 1.4 3.6 0 4.9l-4 4c-.5.4-1.1.7-1.7.7zm-9.5 9.1c-.9 0-1.8-.4-2.5-1L1 18.7c-1.4-1.4-1.4-3.6 0-5l4-4c1-1 2.6-1 3.5 0l.1.1c.2.2.2.5 0 .7-.2.2-.5.2-.7 0l-.1-.1c-.6-.6-1.5-.6-2.1 0l-4 4c-1 1-1 2.6 0 3.5l1.8 1.8c.9.9 2.6.9 3.5 0l4-4c.6-.6.6-1.5 0-2.1l-.1-.1c-.2-.2-.2-.5 0-.7s.5-.2.7 0l.1.1c1 1 1 2.6 0 3.5l-4 4c-.6.7-1.5 1.1-2.4 1.1z"/><path d="M6.9 15.1c-.1 0-.3 0-.4-.1-.2-.2-.2-.5 0-.7l7.8-7.8c.2-.2.5-.2.7 0s.2.5 0 .7L7.2 15c-.1.1-.2.1-.3.1z"/></svg>