<svg xmlns="http://www.w3.org/2000/svg" xmlns:xlink="http://www.w3.org/1999/xlink"><symbol viewBox="0 0 9.5 18" id="arrow-left"><path d="M9 18c-.1 0-.3 0-.4-.1L.1 9.4c-.1-.2-.1-.6 0-.8L8.6.1c.2-.1.6-.1.8 0s.2.5 0 .7L1.2 9l8.1 8.1c.2.2.2.5 0 .7 0 .2-.2.2-.3.2z"/></symbol><symbol viewBox="0 0 9.5 18" id="arrow-right"><path d="M.5 18c-.1 0-.3 0-.4-.1-.2-.2-.2-.5 0-.7L8.3 9 .1.9C0 .7 0 .3.1.1s.5-.2.7 0l8.5 8.5c.2.2.2.5 0 .7L.8 17.8c0 .2-.2.2-.3.2z"/></symbol><symbol viewBox="0 0 24 24" id="check"><path d="M9.5 16c-.1 0-.3 0-.4-.1l-2.5-2.5c-.2-.2-.2-.5 0-.7s.5-.2.7 0l2.2 2.2 7.1-6.7c.2-.2.5-.2.7 0s.2.5 0 .7l-7.5 7c-.1.1-.2.1-.3.1z"/><path d="M12 24C5.4 24 0 18.6 0 12S5.4 0 12 0s12 5.4 12 12-5.4 12-12 12zm0-23C5.9 1 1 5.9 1 12s4.9 11 11 11 11-4.9 11-11S18.1 1 12 1z"/></symbol><symbol viewBox="0 0 23 23" id="close"><path d="M11.5 23C5.2 23 0 17.8 0 11.5S5.2 0 11.5 0 23 5.2 23 11.5 17.8 23 11.5 23zm0-22C5.7 1 1 5.7 1 11.5S5.7 22 11.5 22 22 17.3 22 11.5 17.3 1 11.5 1z"/><path d="M7.3 16.2c-.1 0-.3 0-.4-.1-.2-.2-.2-.5 0-.7l8.5-8.5c.2-.2.5-.2.7 0s.2.5 0 .7l-8.5 8.5c-.1.1-.2.1-.3.1z"/><path d="M15.7 16.2c-.1 0-.3 0-.4-.1L6.9 7.6c-.2-.2-.2-.5 0-.7s.5-.2.7 0l8.5 8.5c.2.2.2.5 0 .7-.1.1-.2.1-.4.1z"/></symbol><symbol viewBox="0 0 24 24" id="email"><path d="M12 17c-2.8 0-5-2.2-5-5s2.2-5 5-5 5 2.2 5 5-2.2 5-5 5zm0-9c-2.2 0-4 1.8-4 4s1.8 4 4 4 4-1.8 4-4-1.8-4-4-4z"/><path d="M12 24C5.4 24 0 18.6 0 12S5.4 0 12 0s12 5.4 12 12v1c0 2.2-1.8 4-4 4s-4-1.8-4-4v-1c0-.3.2-.5.5-.5s.5.2.5.5v1c0 1.7 1.3 3 3 3s3-1.3 3-3v-1c0-6.1-4.9-11-11-11S1 5.9 1 12s4.9 11 11 11c2.2 0 4.4-.7 6.2-1.9.2-.2.5-.1.7.1.2.2.1.5-.1.7-2 1.4-4.4 2.1-6.8 2.1z"/></symbol><symbol viewBox="0 0 13.3 24" id="facebook"><path d="M8.5 24h-5c-.3 0-.5-.3-.5-.5V12H.5c-.3 0-.5-.3-.5-.5v-4c0-.3.2-.5.5-.5H3V5.3C3 4.1 3.4 0 8.2 0h4.3c.3 0 .5.2.5.5v3.9c0 .3-.2.6-.5.6h-3c-.4 0-.5.3-.5.6V7h3.8c.1 0 .2 0 .3.1.1.1.1.2.1.4l-.4 4c0 .3-.2.4-.5.4H9v11.5c0 .3-.2.6-.5.6zM4 23h4V11.5c0-.3.2-.5.5-.5h3.4l.3-3H8.5c-.3 0-.5-.3-.5-.5V5.6C8 4.4 8.8 4 9.5 4H12V1H8.2C4.5 1 4 3.7 4 5.3v2.1c0 .3-.2.6-.5.6H1v3h2.5c.3 0 .5.2.5.5V23z"/></symbol><symbol viewBox="0 0 95.6 83.7" id="gallery"><path d="M87.1 6.8H8.5v3.4h78.6V6.8zM80.3 0H15.4v3.4h64.9V0zM0 13.7v70h95.6v-70H0zm92.2 66.6H3.4V17.1h88.8v63.2zm-46.1-12h3.4V51.2h17.1v-3.4H49.5V30.7h-3.4v17.1H29v3.4h17.1v17.1z"/></symbol><symbol viewBox="0 0 24 21.7" id="google-plus"><path d="M7.2 21.7c-1 0-2-.1-2.9-.4-1.8-.5-3.2-1.4-3.9-2.5-.3-.6-.4-1.1-.4-1.7 0-.6.1-1.2.4-1.8.9-2 3.3-3.4 5.9-3.6-.1-.2-.1-.5-.1-.7v-.2c-2.8-.3-4.9-2.5-4.9-5.4C1.3 3.2 3 1.2 5.4.3 6.2.1 6.9 0 7.6 0h6.1c.4 0 .8.3.9.7.1.4 0 .8-.4 1.1l-1.4 1c-.1 0-.1.1-.2.1.4.8.6 1.7.6 2.6 0 1.5-.7 2.9-2.1 4-.7.6-.8.7-.8.9.1.2.6.7 1.2 1.2 1.8 1.3 2.5 2.6 2.5 4.8 0 2.3-1.7 4.3-4.3 5-.7.1-1.5.3-2.5.3zm-.1-9c-2.6 0-4.9 1.2-5.7 3-.3.5-.4 1-.4 1.4 0 .4.1.8.3 1.2.5.9 1.7 1.7 3.2 2 1.6.4 3.5.5 5 0 2.2-.6 3.6-2.2 3.6-4.1 0-1.8-.6-2.8-2.1-3.9-.4-.3-1.5-1.3-1.5-1.9 0-.7.2-1 1.2-1.8 1.1-.9 1.7-2 1.7-3.2 0-1.1-.3-2-.9-2.7l-.7-.8h1.6l1.4-1-6.2.1c-.6 0-1.2.1-1.8.3-2.1.7-3.5 2.4-3.5 4.2 0 2.5 1.9 4.4 4.5 4.4h.6l-.2.6c0 .2-.1.4-.1.5 0 .3.1.7.3 1l.4.7h-.7zm.1 7c-2.3 0-4.1-1.4-4.1-3.3 0-1.7 2-3.2 4.4-3.2h.1c.5 0 1 .1 1.5.2l.1.1.4.3c1 .7 1.7 1.2 2 2.1.1.2.1.4.1.6 0 1.5-.8 3.2-4.5 3.2zm.4-6v.5c-1.8 0-3.4 1-3.4 2.2 0 1.3 1.3 2.3 3.1 2.3 3.5 0 3.5-1.7 3.5-2.2v-.4c-.1-.5-.7-.9-1.6-1.5l.2-.5-.4.5-.3-.2c-.4-.1-.7-.2-1.1-.2v-.5zm.3-4.4c-1.6 0-3.1-1.8-3.4-3.8-.2-1.2.1-2.3.7-2.9.4-.5 1-.7 1.6-.7h.1c1.6 0 3.1 1.7 3.4 3.8.2 1.2-.1 2.3-.7 2.9-.5.4-1.1.7-1.7.7zm-1.1-7v.5c-.4 0-.6.2-.9.4-.4.5-.5 1.2-.4 2.1.2 1.6 1.3 2.9 2.4 3 .4 0 .6-.1.9-.4.4-.5.6-1.3.5-2.2C9 4.2 7.9 2.9 6.8 2.8v-.5zM20.5 14h-2c-.3 0-.5-.2-.5-.5V11h-2.5c-.3 0-.5-.2-.5-.5v-2c0-.3.2-.5.5-.5H18V5.5c0-.3.2-.5.5-.5h2c.3 0 .5.2.5.5V8h2.5c.3 0 .5.2.5.5v2c0 .3-.2.5-.5.5H21v2.5c0 .3-.2.5-.5.5zM19 13h1v-2.5c0-.3.2-.5.5-.5H23V9h-2.5c-.3 0-.5-.2-.5-.5V6h-1v2.5c0 .3-.2.5-.5.5H16v1h2.5c.3 0 .5.2.5.5V13z"/></symbol><symbol viewBox="0 0 22 22.9" id="heart"><path d="M11 22.9c-.1 0-.2 0-.3-.1C10.3 22.5 0 15.6 0 7.2 0 2.5 2.9.1 5.7.1c2 0 4.2 1.2 5.3 4 1.1-2.8 3.3-4 5.4-4C19.2 0 22 2.3 22 6.6c0 7.8-10.3 15.9-10.7 16.2-.1.1-.2.1-.3.1zM5.7 1.1C3.4 1.1 1 3 1 7.2c0 7.1 8.3 13.4 10 14.6 1.7-1.4 10-8.5 10-15.2C21 2.7 18.6 1 16.4 1c-1.9 0-4.3 1.3-4.9 5.1 0 .2-.2.4-.5.4s-.5-.2-.5-.4c-.6-3.7-2.9-5-4.8-5z"/></symbol><symbol viewBox="0 0 21.5 21.5" id="link"><path d="M14.8 12.4c-.6 0-1.3-.2-1.8-.7l-.1-.1c-.2-.2-.2-.5 0-.7s.5-.2.7 0l.1.1c.6.6 1.5.6 2.1 0l4-4c1-1 1-2.6 0-3.5L18 1.7c-.9-.9-2.6-.9-3.5 0l-4 4c-.6.6-.6 1.5 0 2.1l.1.1c.2.2.2.5 0 .7-.2.2-.5.2-.7 0l-.1-.1c-1-1-1-2.6 0-3.5l4-4c1.3-1.3 3.6-1.3 4.9 0l1.8 1.8c1.4 1.4 1.4 3.6 0 4.9l-4 4c-.5.4-1.1.7-1.7.7zM5.3 21.5c-.9 0-1.8-.4-2.5-1L1 18.7c-1.4-1.4-1.4-3.6 0-5l4-4c1-1 2.6-1 3.5 0l.1.1c.2.2.2.5 0 .7-.2.2-.5.2-.7 0l-.1-.1c-.6-.6-1.5-.6-2.1 0l-4 4c-1 1-1 2.6 0 3.5l1.8 1.8c.9.9 2.6.9 3.5 0l4-4c.6-.6.6-1.5 0-2.1l-.1-.1c-.2-.2-.2-.5 0-.7s.5-.2.7 0l.1.1c1 1 1 2.6 0 3.5l-4 4c-.6.7-1.5 1.1-2.4 1.1z"/><path d="M6.9 15.1c-.1 0-.3 0-.4-.1-.2-.2-.2-.5 0-.7l7.8-7.8c.2-.2.5-.2.7 0s.2.5 0 .7L7.2 15c-.1.1-.2.1-.3.1z"/></symbol><symbol viewBox="0 0 24 24" id="pinterest"><path d="M8.1 24c-.8 0-1.7-.2-2.6-.6-1.3-.5-1.1-2.1-1-3.3 0-.4.1-.8 0-1 0-.2 0-.3.2-.4.1-.1.3-.1.4-.1.3.1.6.2.9.4.4.2.8.4 1.2.3.3-.1.4-.8.5-2v-.1-1.4c0-2.2-.1-6.5-.1-8.4 0-.5.1-.8.7-.9h.1c.9-.1 1.9-.1 3 0 .3 0 .5 0 .8.1h.1c.7-.1.7.4.7.7v6s.1.1.2.1h.2c1.9.4 3.7-.1 4.7-1.4.7-.9.8-2.1.5-3.3-.8-2.8-4.1-4.1-6.9-4.1-.7 0-1.3.1-1.9.2-2.1.5-4 2.1-4.5 3.9-.4 1.3-.1 2.6.8 3.7.1.1.1.2.1.4 0 .1-.1.3-.2.3-.3.2-.5.5-.8.7-.6.5-1.2 1.1-1.9 1.5-.3.2-.6.3-.8.4-.2.1-.4 0-.5-.1C.3 13.9-.4 10.9.2 7.9.8 4.7 2.8 2.3 6 1c1.7-.7 3.7-1 5.8-1 4.2 0 8.1 1.6 10.3 4.2 2 2.4 2.5 5.9 1.2 8.6-1.5 3.1-4.7 5.1-8.2 5.1-.6 0-1.2-.1-1.8-.2.1 2.4-.9 5.1-3.5 6-.6.2-1.2.3-1.7.3zm-2.6-4.2v.4c-.1 1.1-.1 2 .4 2.3 1.2.5 2.4.6 3.5.3 2.4-.8 3.1-3.5 2.8-5.7 0-.2 0-.3.2-.4.1-.1.3-.1.5-.1.7.2 1.5.3 2.3.3 3.1 0 6-1.8 7.3-4.5 1.1-2.4.7-5.4-1.1-7.5-2-2.4-5.6-3.8-9.5-3.8-2-.1-3.9.2-5.5.9-2.9 1.1-4.7 3.3-5.2 6.1-.5 2.5.1 5 1.3 6.6.1-.1.2-.1.4-.2.6-.4 1.2-.9 1.7-1.4l.4-.4c-.9-1.3-1.2-2.8-.7-4.2.7-2.2 2.8-4 5.3-4.6.7-.2 1.4-.2 2.2-.2 3.1 0 6.8 1.5 7.8 4.8.4 1.5.2 3-.6 4.1-1.2 1.6-3.4 2.3-5.7 1.8h-.2c-.4-.1-1-.2-1-1.1V7.4c-.2 0-.5-.1-.7-.1-.9-.1-1.9-.1-2.7 0 0 2 0 6.1.1 8.3v1.5c0 .9-.1 2.5-1.1 2.9-.8.5-1.5.2-2.2-.2.1.1 0 0 0 0z"/></symbol><symbol viewBox="0 0 23.4 19" id="twitter"><path d="M7.5 19c-2.6 0-5.1-.7-7.2-2.1-.3-.1-.3-.4-.3-.6.1-.2.3-.3.5-.3 1.9.2 3.7-.2 5.3-1.1-1.6-.5-2.9-1.7-3.4-3.3-.1-.2 0-.4.1-.5.1-.1.2-.1.3-.2-1.2-.9-2-2.4-2-4 0-.2.1-.4.2-.5.2-.1.3-.1.5 0 .1 0 .1.1.2.1-.5-.8-.8-1.8-.8-2.9 0-.9.2-1.8.7-2.5.1-.2.2-.3.4-.3s.3.1.4.2c2.1 2.6 5.1 4.2 8.4 4.5V5c0-2.8 2.3-5 5-5 1.3 0 2.5.5 3.5 1.4.9-.2 1.7-.5 2.5-1 .2-.1.4-.1.6 0 .2.1.2.3.2.5l-.1.3c-.2.6-.3 1-.6 1.3.3 0 .6-.1.9-.2.2-.1.4 0 .6.1.1.2.2.4 0 .6-.6.9-1.4 1.5-2.2 2-.1.1-.2.2-.3.2v.3c0 6.7-5 13.5-13.4 13.5zm-5-2c1.6.7 3.2 1 4.9 1 7.8 0 12.4-6.3 12.4-12.4V5c0-.2.1-.3.2-.4.2-.1.4-.3.6-.4.3-.2.5-.4.8-.6-.3 0-.7-.1-1-.3-.2-.1-.3-.2-.3-.4s.1-.4.2-.4c.3-.2.5-.4.7-.6-.6.3-1.2.4-1.9.6-.2 0-.3 0-.5-.1C18 1.5 16.9 1 15.8 1c-2.2 0-4 1.8-4 4 0 .3 0 .6.1.9 0 .2 0 .3-.1.4-.1.1-.2.2-.4.2-3.5-.1-6.9-1.7-9.2-4.3-.2.5-.3.9-.3 1.4 0 1.4.7 2.6 1.8 3.4.2.1.3.3.2.6s-.2.3-.5.3c-.5 0-1-.1-1.5-.3.3 1.6 1.5 2.9 3.2 3.2.2 0 .4.2.4.5 0 .2-.1.4-.4.5-.4.1-.9.2-1.3.2.7 1.2 2 2 3.5 2.1.2 0 .4.1.5.3.1.2 0 .4-.2.6-1.5 1.1-3.2 1.8-5.1 2z"/></symbol></svg>