<svg xmlns="http://www.w3.org/2000/svg" viewBox="0 0 23.4 19"><path d="M7.5 19c-2.6 0-5.1-.7-7.2-2.1-.3-.1-.3-.4-.3-.6.1-.2.3-.3.5-.3 1.9.2 3.7-.2 5.3-1.1-1.6-.5-2.9-1.7-3.4-3.3-.1-.2 0-.4.1-.5.1-.1.2-.1.3-.2-1.2-.9-2-2.4-2-4 0-.2.1-.4.2-.5.2-.1.3-.1.5 0 .1 0 .1.1.2.1-.5-.8-.8-1.8-.8-2.9 0-.9.2-1.8.7-2.5.1-.2.2-.3.4-.3s.3.1.4.2c2.1 2.6 5.1 4.2 8.4 4.5V5c0-2.8 2.3-5 5-5 1.3 0 2.5.5 3.5 1.4.9-.2 1.7-.5 2.5-1 .2-.1.4-.1.6 0 .2.1.2.3.2.5l-.1.3c-.2.6-.3 1-.6 1.3.3 0 .6-.1.9-.2.2-.1.4 0 .6.1.1.2.2.4 0 .6-.6.9-1.4 1.5-2.2 2-.1.1-.2.2-.3.2v.3c0 6.7-5 13.5-13.4 13.5zm-5-2c1.6.7 3.2 1 4.9 1 7.8 0 12.4-6.3 12.4-12.4V5c0-.2.1-.3.2-.4.2-.1.4-.3.6-.4.3-.2.5-.4.8-.6-.3 0-.7-.1-1-.3-.2-.1-.3-.2-.3-.4s.1-.4.2-.4c.3-.2.5-.4.7-.6-.6.3-1.2.4-1.9.6-.2 0-.3 0-.5-.1C18 1.5 16.9 1 15.8 1c-2.2 0-4 1.8-4 4 0 .3 0 .6.1.9 0 .2 0 .3-.1.4-.1.1-.2.2-.4.2-3.5-.1-6.9-1.7-9.2-4.3-.2.5-.3.9-.3 1.4 0 1.4.7 2.6 1.8 3.4.2.1.3.3.2.6s-.2.3-.5.3c-.5 0-1-.1-1.5-.3.3 1.6 1.5 2.9 3.2 3.2.2 0 .4.2.4.5 0 .2-.1.4-.4.5-.4.1-.9.2-1.3.2.7 1.2 2 2 3.5 2.1.2 0 .4.1.5.3.1.2 0 .4-.2.6-1.5 1.1-3.2 1.8-5.1 2z"/></svg>