<?xml version="1.0" encoding="utf-8"?>
<!-- Generator: Adobe Illustrator 18.1.1, SVG Export Plug-In . SVG Version: 6.00 Build 0)  -->
<!DOCTYPE svg PUBLIC "-//W3C//DTD SVG 1.1//EN" "http://www.w3.org/Graphics/SVG/1.1/DTD/svg11.dtd">
<svg version="1.1" id="Layer_1" xmlns="http://www.w3.org/2000/svg" xmlns:xlink="http://www.w3.org/1999/xlink" x="0px" y="0px"
	 viewBox="0 0 23 23" enable-background="new 0 0 23 23" xml:space="preserve">
<path d="M11.5,23C5.2,23,0,17.8,0,11.5C0,5.2,5.2,0,11.5,0C17.8,0,23,5.2,23,11.5C23,17.8,17.8,23,11.5,23z M11.5,1
	C5.7,1,1,5.7,1,11.5C1,17.3,5.7,22,11.5,22C17.3,22,22,17.3,22,11.5C22,5.7,17.3,1,11.5,1z"/>
<path d="M7.3,16.2c-0.1,0-0.3,0-0.4-0.1c-0.2-0.2-0.2-0.5,0-0.7l8.5-8.5c0.2-0.2,0.5-0.2,0.7,0s0.2,0.5,0,0.7l-8.5,8.5
	C7.5,16.2,7.4,16.2,7.3,16.2z"/>
<path d="M15.7,16.2c-0.1,0-0.3,0-0.4-0.1L6.9,7.6c-0.2-0.2-0.2-0.5,0-0.7s0.5-0.2,0.7,0l8.5,8.5c0.2,0.2,0.2,0.5,0,0.7
	C16,16.2,15.9,16.2,15.7,16.2z"/>
</svg>
