<?xml version="1.0" encoding="utf-8"?>
<!-- Generator: Adobe Illustrator 18.1.1, SVG Export Plug-In . SVG Version: 6.00 Build 0)  -->
<!DOCTYPE svg PUBLIC "-//W3C//DTD SVG 1.1//EN" "http://www.w3.org/Graphics/SVG/1.1/DTD/svg11.dtd">
<svg version="1.1" id="Layer_1" xmlns="http://www.w3.org/2000/svg" xmlns:xlink="http://www.w3.org/1999/xlink" x="0px" y="0px"
	 viewBox="0 0 13.3 24" enable-background="new 0 0 13.3 24" xml:space="preserve">
<g>
	<path d="M8.5,24h-5C3.2,24,3,23.7,3,23.5V12H0.5C0.2,12,0,11.7,0,11.5v-4C0,7.2,0.2,7,0.5,7H3V5.3C3,4.1,3.4,0,8.2,0l4.3,0
		C12.8,0,13,0.2,13,0.5v3.9C13,4.7,12.8,5,12.5,5h-3C9.1,5,9,5.3,9,5.6V7h3.8C12.9,7,13,7,13.1,7.1c0.1,0.1,0.1,0.2,0.1,0.4l-0.4,4
		c0,0.3-0.2,0.4-0.5,0.4H9v11.5C9,23.7,8.8,24,8.5,24z M4,23h4V11.5C8,11.2,8.2,11,8.5,11h3.4l0.3-3H8.5C8.2,8,8,7.7,8,7.5V5.6
		C8,4.4,8.8,4,9.5,4H12V1L8.2,1C4.5,1,4,3.7,4,5.3v2.1C4,7.7,3.8,8,3.5,8H1v3h2.5C3.8,11,4,11.2,4,11.5V23z"/>
</g>
</svg>
