<?xml version="1.0" encoding="utf-8"?>
<!-- Generator: Adobe Illustrator 18.1.1, SVG Export Plug-In . SVG Version: 6.00 Build 0)  -->
<!DOCTYPE svg PUBLIC "-//W3C//DTD SVG 1.1//EN" "http://www.w3.org/Graphics/SVG/1.1/DTD/svg11.dtd">
<svg version="1.1" id="Layer_1" xmlns="http://www.w3.org/2000/svg" xmlns:xlink="http://www.w3.org/1999/xlink" x="0px" y="0px"
	 viewBox="0 0 24 21.7" enable-background="new 0 0 24 21.7" xml:space="preserve">
<g>
	<path d="M7.2,21.7c-1,0-2-0.1-2.9-0.4c-1.8-0.5-3.2-1.4-3.9-2.5C0.1,18.2,0,17.7,0,17.1c0-0.6,0.1-1.2,0.4-1.8
		c0.9-2,3.3-3.4,5.9-3.6c-0.1-0.2-0.1-0.5-0.1-0.7c0-0.1,0-0.1,0-0.2c-2.8-0.3-4.9-2.5-4.9-5.4c0-2.2,1.7-4.2,4.1-5.1
		C6.2,0.1,6.9,0,7.6,0h6.1c0.4,0,0.8,0.3,0.9,0.7c0.1,0.4,0,0.8-0.4,1.1l-1.4,1c-0.1,0-0.1,0.1-0.2,0.1c0.4,0.8,0.6,1.7,0.6,2.6
		c0,1.5-0.7,2.9-2.1,4c-0.7,0.6-0.8,0.7-0.8,0.9c0.1,0.2,0.6,0.7,1.2,1.2c1.8,1.3,2.5,2.6,2.5,4.8c0,2.3-1.7,4.3-4.3,5
		C9,21.5,8.2,21.7,7.2,21.7z M7.1,12.7c-2.6,0-4.9,1.2-5.7,3C1.1,16.2,1,16.7,1,17.1c0,0.4,0.1,0.8,0.3,1.2c0.5,0.9,1.7,1.7,3.2,2
		c1.6,0.4,3.5,0.5,5,0c2.2-0.6,3.6-2.2,3.6-4.1c0-1.8-0.6-2.8-2.1-3.9C10.6,12,9.5,11,9.5,10.4c0-0.7,0.2-1,1.2-1.8
		c1.1-0.9,1.7-2,1.7-3.2c0-1.1-0.3-2-0.9-2.7l-0.7-0.8h1.6l1.4-1L7.6,1C7,1,6.4,1.1,5.8,1.3C3.7,2,2.3,3.7,2.3,5.5
		c0,2.5,1.9,4.4,4.5,4.4l0.6,0l-0.2,0.6c0,0.2-0.1,0.4-0.1,0.5c0,0.3,0.1,0.7,0.3,1l0.4,0.7H7.1z M7.2,19.7c-2.3,0-4.1-1.4-4.1-3.3
		c0-1.7,2-3.2,4.4-3.2h0.1c0.5,0,1,0.1,1.5,0.2l0.1,0.1l0.4,0.3c1,0.7,1.7,1.2,2,2.1c0.1,0.2,0.1,0.4,0.1,0.6
		C11.7,18,10.9,19.7,7.2,19.7z M7.6,13.7v0.5c-1.8,0-3.4,1-3.4,2.2c0,1.3,1.3,2.3,3.1,2.3c3.5,0,3.5-1.7,3.5-2.2c0-0.1,0-0.3,0-0.4
		c-0.1-0.5-0.7-0.9-1.6-1.5l0.2-0.5L9,14.6l-0.3-0.2c-0.4-0.1-0.7-0.2-1.1-0.2L7.6,13.7z M7.9,9.3c-1.6,0-3.1-1.8-3.4-3.8
		C4.3,4.3,4.6,3.2,5.2,2.6c0.4-0.5,1-0.7,1.6-0.7l0.1,0c1.6,0,3.1,1.7,3.4,3.8c0.2,1.2-0.1,2.3-0.7,2.9C9.1,9,8.5,9.3,7.9,9.3z
		 M6.8,2.3v0.5C6.4,2.8,6.2,3,5.9,3.2C5.5,3.7,5.4,4.4,5.5,5.3c0.2,1.6,1.3,2.9,2.4,3c0.4,0,0.6-0.1,0.9-0.4
		c0.4-0.5,0.6-1.3,0.5-2.2C9,4.2,7.9,2.9,6.8,2.8L6.8,2.3z"/>
	<path d="M20.5,14h-2c-0.3,0-0.5-0.2-0.5-0.5V11h-2.5c-0.3,0-0.5-0.2-0.5-0.5v-2C15,8.2,15.2,8,15.5,8H18V5.5C18,5.2,18.2,5,18.5,5
		h2C20.8,5,21,5.2,21,5.5V8h2.5C23.8,8,24,8.2,24,8.5v2c0,0.3-0.2,0.5-0.5,0.5H21v2.5C21,13.8,20.8,14,20.5,14z M19,13h1v-2.5
		c0-0.3,0.2-0.5,0.5-0.5H23V9h-2.5C20.2,9,20,8.8,20,8.5V6h-1v2.5C19,8.8,18.8,9,18.5,9H16v1h2.5c0.3,0,0.5,0.2,0.5,0.5V13z"/>
</g>
</svg>
