<?xml version="1.0" encoding="utf-8"?>
<!-- Generator: Adobe Illustrator 18.1.1, SVG Export Plug-In . SVG Version: 6.00 Build 0)  -->
<!DOCTYPE svg PUBLIC "-//W3C//DTD SVG 1.1//EN" "http://www.w3.org/Graphics/SVG/1.1/DTD/svg11.dtd">
<svg version="1.1" id="Layer_1" xmlns="http://www.w3.org/2000/svg" xmlns:xlink="http://www.w3.org/1999/xlink" x="0px" y="0px"
	 viewBox="0 0 22 22.9" enable-background="new 0 0 22 22.9" xml:space="preserve">
<g>
	<path d="M11,22.9c-0.1,0-0.2,0-0.3-0.1C10.3,22.5,0,15.6,0,7.2c0-4.7,2.9-7.1,5.7-7.1c2,0,4.2,1.2,5.3,4c1.1-2.8,3.3-4,5.4-4
		C19.2,0,22,2.3,22,6.6c0,7.8-10.3,15.9-10.7,16.2C11.2,22.9,11.1,22.9,11,22.9z M5.7,1.1C3.4,1.1,1,3,1,7.2c0,7.1,8.3,13.4,10,14.6
		c1.7-1.4,10-8.5,10-15.2C21,2.7,18.6,1,16.4,1c-1.9,0-4.3,1.3-4.9,5.1c0,0.2-0.2,0.4-0.5,0.4s-0.5-0.2-0.5-0.4
		C9.9,2.4,7.6,1.1,5.7,1.1z"/>
</g>
</svg>
