<?xml version="1.0" encoding="utf-8"?>
<!-- Generator: Adobe Illustrator 18.1.1, SVG Export Plug-In . SVG Version: 6.00 Build 0)  -->
<!DOCTYPE svg PUBLIC "-//W3C//DTD SVG 1.1//EN" "http://www.w3.org/Graphics/SVG/1.1/DTD/svg11.dtd">
<svg version="1.1" id="Layer_1" xmlns="http://www.w3.org/2000/svg" xmlns:xlink="http://www.w3.org/1999/xlink" x="0px" y="0px"
	 viewBox="0 0 21.5 21.5" enable-background="new 0 0 21.5 21.5" xml:space="preserve">
<g>
	<path d="M14.8,12.4c-0.6,0-1.3-0.2-1.8-0.7l-0.1-0.1c-0.2-0.2-0.2-0.5,0-0.7s0.5-0.2,0.7,0l0.1,0.1c0.6,0.6,1.5,0.6,2.1,0l4-4
		c1-1,1-2.6,0-3.5L18,1.7c-0.9-0.9-2.6-0.9-3.5,0l-4,4c-0.6,0.6-0.6,1.5,0,2.1l0.1,0.1c0.2,0.2,0.2,0.5,0,0.7
		c-0.2,0.2-0.5,0.2-0.7,0L9.8,8.5c-1-1-1-2.6,0-3.5l4-4c1.3-1.3,3.6-1.3,4.9,0l1.8,1.8c1.4,1.4,1.4,3.6,0,4.9l-4,4
		C16,12.1,15.4,12.4,14.8,12.4z"/>
	<path fill="none" stroke="#000000" stroke-linecap="round" stroke-linejoin="round" stroke-miterlimit="10" d="M8.3,10.2"/>
	<path d="M5.3,21.5c-0.9,0-1.8-0.4-2.5-1L1,18.7c-1.4-1.4-1.4-3.6,0-5l4-4c1-1,2.6-1,3.5,0l0.1,0.1c0.2,0.2,0.2,0.5,0,0.7
		c-0.2,0.2-0.5,0.2-0.7,0l-0.1-0.1c-0.6-0.6-1.5-0.6-2.1,0l-4,4c-1,1-1,2.6,0,3.5l1.8,1.8c0.9,0.9,2.6,0.9,3.5,0l4-4
		c0.6-0.6,0.6-1.5,0-2.1l-0.1-0.1c-0.2-0.2-0.2-0.5,0-0.7s0.5-0.2,0.7,0l0.1,0.1c1,1,1,2.6,0,3.5l-4,4C7.1,21.1,6.2,21.5,5.3,21.5z"
		/>
	<path d="M6.9,15.1c-0.1,0-0.3,0-0.4-0.1c-0.2-0.2-0.2-0.5,0-0.7l7.8-7.8c0.2-0.2,0.5-0.2,0.7,0s0.2,0.5,0,0.7L7.2,15
		C7.1,15.1,7,15.1,6.9,15.1z"/>
</g>
</svg>
