<?xml version="1.0" encoding="utf-8"?>
<!-- Generator: Adobe Illustrator 18.1.1, SVG Export Plug-In . SVG Version: 6.00 Build 0)  -->
<!DOCTYPE svg PUBLIC "-//W3C//DTD SVG 1.1//EN" "http://www.w3.org/Graphics/SVG/1.1/DTD/svg11.dtd">
<svg version="1.1" id="Layer_1" xmlns="http://www.w3.org/2000/svg" xmlns:xlink="http://www.w3.org/1999/xlink" x="0px" y="0px"
	 viewBox="0 0 24 24" enable-background="new 0 0 24 24" xml:space="preserve">
<g>
	<path d="M8.1,24c-0.8,0-1.7-0.2-2.6-0.6c-1.3-0.5-1.1-2.1-1-3.3c0-0.4,0.1-0.8,0-1c0-0.2,0-0.3,0.2-0.4c0.1-0.1,0.3-0.1,0.4-0.1
		C5.4,18.7,5.7,18.8,6,19c0.4,0.2,0.8,0.4,1.2,0.3c0.3-0.1,0.4-0.8,0.5-2l0-0.1c0,0,0-0.6,0-1.4c0-2.2-0.1-6.5-0.1-8.4
		c0-0.5,0.1-0.8,0.7-0.9l0.1,0c0.9-0.1,1.9-0.1,3,0c0.3,0,0.5,0,0.8,0.1l0.1,0C13,6.5,13,7,13,7.3v6c0,0,0.1,0.1,0.2,0.1l0.2,0
		c1.9,0.4,3.7-0.1,4.7-1.4c0.7-0.9,0.8-2.1,0.5-3.3c-0.8-2.8-4.1-4.1-6.9-4.1c-0.7,0-1.3,0.1-1.9,0.2c-2.1,0.5-4,2.1-4.5,3.9
		c-0.4,1.3-0.1,2.6,0.8,3.7c0.1,0.1,0.1,0.2,0.1,0.4c0,0.1-0.1,0.3-0.2,0.3c-0.3,0.2-0.5,0.5-0.8,0.7c-0.6,0.5-1.2,1.1-1.9,1.5
		c-0.3,0.2-0.6,0.3-0.8,0.4c-0.2,0.1-0.4,0-0.5-0.1c-1.7-1.7-2.4-4.7-1.8-7.7C0.8,4.7,2.8,2.3,6,1c1.7-0.7,3.7-1,5.8-1
		c4.2,0,8.1,1.6,10.3,4.2c2,2.4,2.5,5.9,1.2,8.6c-1.5,3.1-4.7,5.1-8.2,5.1c0,0,0,0,0,0c-0.6,0-1.2-0.1-1.8-0.2
		c0.1,2.4-0.9,5.1-3.5,6C9.2,23.9,8.6,24,8.1,24z M5.5,19.8c0,0.1,0,0.3,0,0.4c-0.1,1.1-0.1,2,0.4,2.3c1.2,0.5,2.4,0.6,3.5,0.3
		c2.4-0.8,3.1-3.5,2.8-5.7c0-0.2,0-0.3,0.2-0.4c0.1-0.1,0.3-0.1,0.5-0.1c0.7,0.2,1.5,0.3,2.3,0.3c0,0,0,0,0,0c3.1,0,6-1.8,7.3-4.5
		c1.1-2.4,0.7-5.4-1.1-7.5c-2-2.4-5.6-3.8-9.5-3.8C9.9,1,8,1.3,6.4,2C3.5,3.1,1.7,5.3,1.2,8.1c-0.5,2.5,0.1,5,1.3,6.6
		c0.1-0.1,0.2-0.1,0.4-0.2c0.6-0.4,1.2-0.9,1.7-1.4c0.1-0.1,0.3-0.3,0.4-0.4c-0.9-1.3-1.2-2.8-0.7-4.2C5,6.3,7.1,4.5,9.6,3.9
		c0.7-0.2,1.4-0.2,2.2-0.2c3.1,0,6.8,1.5,7.8,4.8c0.4,1.5,0.2,3-0.6,4.1c-1.2,1.6-3.4,2.3-5.7,1.8l-0.2,0c-0.4-0.1-1-0.2-1-1.1V7.4
		c-0.2,0-0.5-0.1-0.7-0.1c-0.9-0.1-1.9-0.1-2.7,0c0,2,0,6.1,0.1,8.3c0,0.8,0,1.4,0,1.4l0,0.1c0,0.9-0.1,2.5-1.1,2.9
		C6.9,20.5,6.2,20.2,5.5,19.8C5.6,19.9,5.5,19.8,5.5,19.8z"/>
</g>
</svg>
