<?xml version="1.0" encoding="utf-8"?>
<!-- Generator: Adobe Illustrator 18.1.1, SVG Export Plug-In . SVG Version: 6.00 Build 0)  -->
<!DOCTYPE svg PUBLIC "-//W3C//DTD SVG 1.1//EN" "http://www.w3.org/Graphics/SVG/1.1/DTD/svg11.dtd">
<svg version="1.1" id="Layer_1" xmlns="http://www.w3.org/2000/svg" xmlns:xlink="http://www.w3.org/1999/xlink" x="0px" y="0px"
	 viewBox="0 0 23.4 19" enable-background="new 0 0 23.4 19" xml:space="preserve">
<g>
	<path d="M7.5,19c-2.6,0-5.1-0.7-7.2-2.1C0,16.8,0,16.5,0,16.3c0.1-0.2,0.3-0.3,0.5-0.3c1.9,0.2,3.7-0.2,5.3-1.1
		c-1.6-0.5-2.9-1.7-3.4-3.3c-0.1-0.2,0-0.4,0.1-0.5c0.1-0.1,0.2-0.1,0.3-0.2c-1.2-0.9-2-2.4-2-4c0-0.2,0.1-0.4,0.2-0.5
		c0.2-0.1,0.3-0.1,0.5,0c0.1,0,0.1,0.1,0.2,0.1C1.2,5.7,0.9,4.7,0.9,3.6c0-0.9,0.2-1.8,0.7-2.5C1.7,0.9,1.8,0.8,2,0.8
		c0.2,0,0.3,0.1,0.4,0.2c2.1,2.6,5.1,4.2,8.4,4.5c0-0.2,0-0.3,0-0.5c0-2.8,2.3-5,5-5c1.3,0,2.5,0.5,3.5,1.4c0.9-0.2,1.7-0.5,2.5-1
		c0.2-0.1,0.4-0.1,0.6,0c0.2,0.1,0.2,0.3,0.2,0.5l-0.1,0.3c-0.2,0.6-0.3,1-0.6,1.3c0.3,0,0.6-0.1,0.9-0.2c0.2-0.1,0.4,0,0.6,0.1
		c0.1,0.2,0.2,0.4,0,0.6C22.8,3.9,22,4.5,21.2,5c-0.1,0.1-0.2,0.2-0.3,0.2c0,0.1,0,0.2,0,0.3C20.9,12.2,15.9,19,7.5,19z M2.5,17
		c1.6,0.7,3.2,1,4.9,1c7.8,0,12.4-6.3,12.4-12.4c0-0.2,0-0.4,0-0.6c0-0.2,0.1-0.3,0.2-0.4c0.2-0.1,0.4-0.3,0.6-0.4
		c0.3-0.2,0.5-0.4,0.8-0.6c-0.3,0-0.7-0.1-1-0.3c-0.2-0.1-0.3-0.2-0.3-0.4c0-0.2,0.1-0.4,0.2-0.4c0.3-0.2,0.5-0.4,0.7-0.6
		c-0.6,0.3-1.2,0.4-1.9,0.6c-0.2,0-0.3,0-0.5-0.1C18,1.5,16.9,1,15.8,1c-2.2,0-4,1.8-4,4c0,0.3,0,0.6,0.1,0.9c0,0.2,0,0.3-0.1,0.4
		c-0.1,0.1-0.2,0.2-0.4,0.2C7.9,6.4,4.5,4.8,2.2,2.2C2,2.7,1.9,3.1,1.9,3.6C1.9,5,2.6,6.2,3.7,7C3.9,7.1,4,7.3,3.9,7.6
		S3.7,7.9,3.4,7.9c-0.5,0-1-0.1-1.5-0.3c0.3,1.6,1.5,2.9,3.2,3.2c0.2,0,0.4,0.2,0.4,0.5c0,0.2-0.1,0.4-0.4,0.5
		C4.7,11.9,4.2,12,3.8,12c0.7,1.2,2,2,3.5,2.1c0.2,0,0.4,0.1,0.5,0.3c0.1,0.2,0,0.4-0.2,0.6C6.1,16.1,4.4,16.8,2.5,17z"/>
</g>
</svg>
